<svg width="46" height="45" viewBox="0 0 46 45" fill="none" xmlns="http://www.w3.org/2000/svg">
<g clip-path="url(#clip0_6_18)">
<g clip-path="url(#clip1_6_18)">
<path d="M24 38C32.8366 38 40 30.8366 40 22C40 13.1634 32.8366 6 24 6C15.1634 6 8 13.1634 8 22C8 30.8366 15.1634 38 24 38Z" fill="#FCA311"/>
<path d="M24 38C32.8366 38 40 30.8366 40 22C40 13.1634 32.8366 6 24 6C15.1634 6 8 13.1634 8 22C8 30.8366 15.1634 38 24 38Z" fill="url(#paint0_linear_6_18)"/>
<path d="M16.816 26V17.6H22.24V18.836H18.352V21.188H21.496V22.4H18.352V26H16.816ZM23.425 26V17.6H26.797C27.669 17.6 28.333 17.804 28.789 18.212C29.253 18.612 29.485 19.128 29.485 19.76C29.485 20.288 29.341 20.712 29.053 21.032C28.773 21.344 28.429 21.556 28.021 21.668C28.501 21.764 28.897 22.004 29.209 22.388C29.521 22.764 29.677 23.204 29.677 23.708C29.677 24.372 29.437 24.92 28.957 25.352C28.477 25.784 27.797 26 26.917 26H23.425ZM24.961 21.128H26.569C27.001 21.128 27.333 21.028 27.565 20.828C27.797 20.628 27.913 20.344 27.913 19.976C27.913 19.624 27.797 19.348 27.565 19.148C27.341 18.94 27.001 18.836 26.545 18.836H24.961V21.128ZM24.961 24.752H26.677C27.133 24.752 27.485 24.648 27.733 24.44C27.989 24.224 28.117 23.924 28.117 23.54C28.117 23.148 27.985 22.84 27.721 22.616C27.457 22.392 27.101 22.28 26.653 22.28H24.961V24.752Z" fill="white"/>
</g>
</g>
<defs>
<linearGradient id="paint0_linear_6_18" x1="8" y1="5.852" x2="27.497" y2="44.207" gradientUnits="userSpaceOnUse">
<stop stop-color="#09C6F9"/>
<stop offset="1" stop-color="#045DE9"/>
</linearGradient>
<clipPath id="clip0_6_18">
<rect width="46" height="45" fill="white"/>
</clipPath>
<clipPath id="clip1_6_18">
<rect width="42" height="45" fill="white" transform="translate(2)"/>
</clipPath>
</defs>
</svg>
