<svg width="32" height="32" viewBox="0 0 32 32" fill="none" xmlns="http://www.w3.org/2000/svg">
<g clip-path="url(#clip0_6_15)">
<path d="M16 32C24.8366 32 32 24.8366 32 16C32 7.16344 24.8366 0 16 0C7.16344 0 0 7.16344 0 16C0 24.8366 7.16344 32 16 32Z" fill="#FCA311"/>
<path d="M16 32C24.8366 32 32 24.8366 32 16C32 7.16344 24.8366 0 16 0C7.16344 0 0 7.16344 0 16C0 24.8366 7.16344 32 16 32Z" fill="url(#paint0_linear_6_15)"/>
<path d="M11.193 20V17.012L8.37299 11.6H10.113L11.973 15.476L13.821 11.6H15.537L12.729 17.012V20H11.193ZM18.477 20V12.836H16.029V11.6H22.473V12.836H20.013V20H18.477Z" fill="white"/>
</g>
<defs>
<linearGradient id="paint0_linear_6_15" x1="1.92997e-07" y1="-0.148" x2="19.497" y2="38.207" gradientUnits="userSpaceOnUse">
<stop stop-color="#09C6F9"/>
<stop offset="1" stop-color="#045DE9"/>
</linearGradient>
<clipPath id="clip0_6_15">
<rect width="32" height="32" fill="white"/>
</clipPath>
</defs>
</svg>
